<?xml version="1.0" encoding="utf-8"?>
<!-- Generator: Adobe Illustrator 24.0.0, SVG Export Plug-In . SVG Version: 6.00 Build 0)  -->
<svg version="1.1" id="Layer_1" xmlns="http://www.w3.org/2000/svg" xmlns:xlink="http://www.w3.org/1999/xlink" x="0px" y="0px"
	 viewBox="0 0 100 100" style="enable-background:new 0 0 100 100;" xml:space="preserve">
<path d="M98,40H2c-1.1,0-2-0.9-2-2V22c0-1.1,0.9-2,2-2h96c1.1,0,2,0.9,2,2v16C100,39.1,99.1,40,98,40z"/>
<path d="M78,80H2c-1.1,0-2-0.9-2-2V62c0-1.1,0.9-2,2-2h76c1.1,0,2,0.9,2,2v16C80,79.1,79.1,80,78,80z"/>
</svg>
