<svg xmlns="http://www.w3.org/2000/svg" id="Layer_2" data-name="Layer 2" viewBox="0 0 207.62 124.78"><defs><style>.cls-1{fill:#fff}.cls-2{fill:#b7004f}</style></defs><title>logo2</title><path d="M22.52,63.45a18,18,0,0,1-12.09-4.29A16.1,16.1,0,0,1,4.9,46.85a27.17,27.17,0,0,1,.81-6.21c.4-1.71.89-3.47,1.43-5.25s1.14-3.49,1.76-5.1,1.08-2.74,1.49-3.7c.07-.17.15-.35.24-.52A12.1,12.1,0,0,1,13.2,22.6c0-.51-.08-1-.08-1.55a16.07,16.07,0,0,1,1.1-5.85,17.49,17.49,0,0,1,2.6-4.54A15.36,15.36,0,0,1,21.31,6.8,13.87,13.87,0,0,1,28.16,5a12.93,12.93,0,0,1,9.37,3.94,13.38,13.38,0,0,1,3.69,9.36,17.07,17.07,0,0,1-3.63,10.5,15.77,15.77,0,0,1-1.85,2,10.56,10.56,0,0,1,.2,2.05c0,.42,0,.85,0,1.27a11.44,11.44,0,0,1,3.88,2.36A11.13,11.13,0,0,1,42.48,49c-.1.24-.24.53-.39.84a10.9,10.9,0,0,1-.78,1.52A30.91,30.91,0,0,1,37,56.86a26.85,26.85,0,0,1-5.18,4A17.68,17.68,0,0,1,22.52,63.45Z" class="cls-1" transform="translate(-1 -1.09)"/><path d="M40.88,63.87a20.45,20.45,0,0,1-8.22-1.71,22.8,22.8,0,0,1-6.11-3.91,21.14,21.14,0,0,1-4.4-5.46A15.83,15.83,0,0,1,20,45.05a13,13,0,0,1,3.83-9.29,18.7,18.7,0,0,1,4.2-3.17l.21-.12.91-.45.51-.76c.48-.72,1-1.58,1.66-2.58l.12-.18a29.12,29.12,0,0,1,5.6-6.63,14,14,0,0,1,9-3.5A12,12,0,0,1,51.7,19.8a15.85,15.85,0,0,1,2.54,1.66A14.67,14.67,0,0,1,56.71,24,11,11,0,0,1,59,30.59a10.84,10.84,0,0,1-.4,2.93,11.32,11.32,0,0,1,6.21,2.92,11,11,0,0,1,3.61,8.19A11.16,11.16,0,0,1,67.52,49l-.41.9a11.83,11.83,0,0,1-1,1.79,25.38,25.38,0,0,1-6.36,6.43A31.67,31.67,0,0,1,52.21,62,32.52,32.52,0,0,1,40.88,63.87Z" class="cls-1" transform="translate(-1 -1.09)"/><path d="M76.52,63.45A17.45,17.45,0,0,1,69,61.81a16.81,16.81,0,0,1-7.31,1.64,16.11,16.11,0,0,1-6.06-1.18,15.49,15.49,0,0,1-5.37-3.62,16.39,16.39,0,0,1-3.31-5,16.56,16.56,0,0,1-1.26-6.4,27.7,27.7,0,0,1,1.9-10,32.71,32.71,0,0,1,4.64-8.26,27.87,27.87,0,0,1,7-6.43,19.23,19.23,0,0,1,16.7-2.08,18.48,18.48,0,0,1,4.38,2.19l.33.24A14.88,14.88,0,0,1,83.47,24a13.1,13.1,0,0,1,4.3,3.59,11.9,11.9,0,0,1,2.5,6.66,11.32,11.32,0,0,1,3.5,2.21,11,11,0,0,1,3.61,8.19A11.16,11.16,0,0,1,96.5,49c-.14.31-.27.6-.42.9a11.91,11.91,0,0,1-.77,1.51A31.28,31.28,0,0,1,91,56.86a26.85,26.85,0,0,1-5.18,4A17.68,17.68,0,0,1,76.52,63.45Z" class="cls-1" transform="translate(-1 -1.09)"/><path d="M94.34,63.45A18,18,0,0,1,87.25,62,21,21,0,0,1,81.5,58.3a20.34,20.34,0,0,1-4.44-5.68,17.52,17.52,0,0,1-2-8.23,57.44,57.44,0,0,1,.72-8.86,70,70,0,0,1,2-8.81,60.84,60.84,0,0,1,3.12-8.44,43.83,43.83,0,0,1,4.43-7.61,28,28,0,0,1,6.28-6.26,17.75,17.75,0,0,1,10.23-3.32,14.12,14.12,0,0,1,6.53,1.62,16.27,16.27,0,0,1,4.49,3.41,17.94,17.94,0,0,1,2.78,3.94,13.71,13.71,0,0,1,1.6,6.31A17.48,17.48,0,0,1,115.8,23c-.31.74-.65,1.48-1,2.23a17.77,17.77,0,0,1,2.7,4.43,16.06,16.06,0,0,1,1.24,5.19A11.82,11.82,0,0,1,121,36.45a11,11,0,0,1,3.6,8.18,11.16,11.16,0,0,1-.88,4.35l-.41.89a9.67,9.67,0,0,1-1,1.82,19.71,19.71,0,0,1-5,5,23.62,23.62,0,0,1-5.47,3,21.83,21.83,0,0,1-7.76,1.48A21.93,21.93,0,0,1,94.34,63.45Z" class="cls-1" transform="translate(-1 -1.09)"/><path d="M122.54,63.45a23.08,23.08,0,0,1-7.45-1.2,20.31,20.31,0,0,1-6.52-3.66,18.4,18.4,0,0,1-4.7-6.09,17.92,17.92,0,0,1-1.77-7.87,25.05,25.05,0,0,1,2.13-10.32,26.85,26.85,0,0,1,5.08-7.66,24.42,24.42,0,0,1,7.07-5.2,19.77,19.77,0,0,1,8.56-2.06,16.19,16.19,0,0,1,6.68,1.42,17.26,17.26,0,0,1,4.95,3.34,16.28,16.28,0,0,1,3.58,5.11,15.73,15.73,0,0,1,1.39,6.13,12.82,12.82,0,0,1,1.31,1,11,11,0,0,1,3.61,8.19,11.2,11.2,0,0,1-.88,4.35q-.18.44-.42.9a11.27,11.27,0,0,1-.77,1.51A25.2,25.2,0,0,1,139,57.53a28.61,28.61,0,0,1-6.34,3.87A24,24,0,0,1,122.54,63.45Z" class="cls-1" transform="translate(-1 -1.09)"/><path d="M143.24,63.45a19.93,19.93,0,0,1-6.86-1.2,18.48,18.48,0,0,1-10.64-9.94,19.1,19.1,0,0,1-1.62-7.86,46.65,46.65,0,0,1,.86-8.51,61.61,61.61,0,0,1,2.32-8.73A77.77,77.77,0,0,1,130.63,19a49.89,49.89,0,0,1,4.57-7.79,30.63,30.63,0,0,1,6.15-6.44A17,17,0,0,1,151.7,1.09a14,14,0,0,1,6.62,1.65,16.47,16.47,0,0,1,4.1,3.1,16.14,16.14,0,0,1,2.9,4.16,13.83,13.83,0,0,1,1.42,6,19.55,19.55,0,0,1-1.26,6.54,47,47,0,0,1-2.34,5.38c-.91,1.8-2,3.65-3.16,5.52-.37.58-.75,1.15-1.13,1.73a10.85,10.85,0,0,1,1.64,1.26,11,11,0,0,1,3.61,8.19,11.16,11.16,0,0,1-.88,4.35c-.14.31-.27.6-.42.9a11.91,11.91,0,0,1-.77,1.51,31.47,31.47,0,0,1-4.34,5.47,26.85,26.85,0,0,1-5.18,4A17.68,17.68,0,0,1,143.24,63.45Z" class="cls-1" transform="translate(-1 -1.09)"/><path d="M160.88,63.45a19.93,19.93,0,0,1-6.86-1.2,18.48,18.48,0,0,1-10.64-9.94,19.1,19.1,0,0,1-1.62-7.86,46.65,46.65,0,0,1,.86-8.51,61.61,61.61,0,0,1,2.32-8.73A77.77,77.77,0,0,1,148.27,19a49.89,49.89,0,0,1,4.57-7.79A30.63,30.63,0,0,1,159,4.75a17,17,0,0,1,10.35-3.66A14,14,0,0,1,176,2.74a16.47,16.47,0,0,1,4.1,3.1A16.14,16.14,0,0,1,183,10a13.83,13.83,0,0,1,1.42,6,19.55,19.55,0,0,1-1.26,6.54,47,47,0,0,1-2.34,5.38c-.91,1.8-2,3.65-3.16,5.52-.37.58-.75,1.15-1.13,1.73a10.85,10.85,0,0,1,1.64,1.26,11,11,0,0,1,3.61,8.19,11.16,11.16,0,0,1-.88,4.35c-.14.31-.27.6-.42.9a11.91,11.91,0,0,1-.77,1.51,31.47,31.47,0,0,1-4.34,5.47,26.85,26.85,0,0,1-5.18,4A17.68,17.68,0,0,1,160.88,63.45Z" class="cls-1" transform="translate(-1 -1.09)"/><path d="M189.86,63.45a17.45,17.45,0,0,1-7.51-1.64A16.81,16.81,0,0,1,175,63.45,16.11,16.11,0,0,1,169,62.27a15.49,15.49,0,0,1-5.37-3.62A16.33,16.33,0,0,1,159,47.21a27.8,27.8,0,0,1,1.9-10,32.82,32.82,0,0,1,4.64-8.25,27.7,27.7,0,0,1,7-6.43,19.23,19.23,0,0,1,16.7-2.08,18.48,18.48,0,0,1,4.38,2.19l.32.24A14.72,14.72,0,0,1,196.81,24a13,13,0,0,1,4.3,3.59A12,12,0,0,1,203.64,35a14.28,14.28,0,0,1-.63,4,11.69,11.69,0,0,1,1,.89,11.1,11.1,0,0,1,1.3,14.4,9.64,9.64,0,0,1-1,1.38A27.3,27.3,0,0,1,201.09,59,20.73,20.73,0,0,1,197,61.72,15.45,15.45,0,0,1,189.86,63.45Z" class="cls-1" transform="translate(-1 -1.09)"/><path d="M16.46,125.87a18.64,18.64,0,0,1-3.93-.44,15.91,15.91,0,0,1-4.73-1.85,14.1,14.1,0,0,1-4.67-4.52A13.72,13.72,0,0,1,1,111.61a29.46,29.46,0,0,1,.58-5.18c.3-1.65.69-3.55,1.15-5.67s1-4.43,1.66-6.83,1.23-4.66,1.86-7,1.3-4.6,1.95-6.7,1.3-4,1.89-5.62c.05-.14.1-.27.16-.41A11.66,11.66,0,0,1,21.14,67,12.76,12.76,0,0,1,26,68l.29-.13a16.63,16.63,0,0,1,6.79-1.46,16.09,16.09,0,0,1,7.57,1.83,17.33,17.33,0,0,1,5.19,4.1A18.52,18.52,0,0,1,49,77.46a17,17,0,0,1,1.15,4.31,11.18,11.18,0,0,1,2.35,1.67,11,11,0,0,1,3.61,8.19,10.87,10.87,0,0,1-.91,4.4,8,8,0,0,1-.38.83,9.76,9.76,0,0,1-1,1.83,19.71,19.71,0,0,1-4.95,5,23.75,23.75,0,0,1-5.46,3,22.07,22.07,0,0,1-7.48,1.48,22.3,22.3,0,0,1-2.06.92A19.34,19.34,0,0,1,28,110.42c-.06.41-.12.82-.17,1.23a24.47,24.47,0,0,0-.22,2.9A11.11,11.11,0,0,1,16.46,125.87Z" class="cls-1" transform="translate(-1 -1.09)"/><path d="M49.58,110.45a18,18,0,0,1-12.09-4.29A16.07,16.07,0,0,1,32,93.85a26.62,26.62,0,0,1,.81-6.21c.4-1.71.89-3.47,1.43-5.25s1.14-3.49,1.76-5.1S37,74.55,37.45,73.6a5.05,5.05,0,0,1,.24-.53,12.24,12.24,0,0,1,2.57-3.47c0-.51-.08-1-.08-1.55a16.11,16.11,0,0,1,1.1-5.85,17.49,17.49,0,0,1,2.6-4.54,15.36,15.36,0,0,1,4.49-3.86A13.87,13.87,0,0,1,55.22,52a12.93,12.93,0,0,1,9.37,3.94,13.38,13.38,0,0,1,3.69,9.36,17.07,17.07,0,0,1-3.63,10.5,15.77,15.77,0,0,1-1.85,2,10.63,10.63,0,0,1,.2,2c0,.42,0,.85,0,1.27a11.44,11.44,0,0,1,3.88,2.36,11,11,0,0,1,3.61,8.19,10.87,10.87,0,0,1-.91,4.4c-.09.24-.23.53-.38.84a10.9,10.9,0,0,1-.78,1.52A30.91,30.91,0,0,1,64,103.86a27.16,27.16,0,0,1-5.18,4A17.68,17.68,0,0,1,49.58,110.45Z" class="cls-1" transform="translate(-1 -1.09)"/><path d="M77.24,110.45a17.45,17.45,0,0,1-7.51-1.64,16.81,16.81,0,0,1-7.31,1.64,16.11,16.11,0,0,1-6.06-1.18A15.49,15.49,0,0,1,51,105.65a16.33,16.33,0,0,1-4.57-11.44,27.7,27.7,0,0,1,1.9-10A32.71,32.71,0,0,1,53,75.93a27.47,27.47,0,0,1,7-6.42,19,19,0,0,1,10.28-3.12,19.21,19.21,0,0,1,6.42,1A18.48,18.48,0,0,1,81,69.61l.32.24A14.72,14.72,0,0,1,84.19,71a13.1,13.1,0,0,1,4.3,3.59A11.9,11.9,0,0,1,91,81.23a11.32,11.32,0,0,1,3.5,2.21,11,11,0,0,1,3.61,8.19A11.16,11.16,0,0,1,97.22,96c-.14.31-.27.6-.42.9A11.91,11.91,0,0,1,96,98.39a31.28,31.28,0,0,1-4.34,5.47,26.85,26.85,0,0,1-5.18,4A17.68,17.68,0,0,1,77.24,110.45Z" class="cls-1" transform="translate(-1 -1.09)"/><path d="M105.74,110.45a18.85,18.85,0,0,1-9.26-2.27,7.85,7.85,0,0,1-.66.47,11.69,11.69,0,0,1-6.4,1.8,17.82,17.82,0,0,1-9-2.26,12.56,12.56,0,0,1-6.64-11,36.72,36.72,0,0,1,.77-7.31c.44-2.16,1-4.26,1.57-6.27s1.16-3.7,1.77-5.39,1.12-3,1.55-4A11.61,11.61,0,0,1,90.26,67a13.14,13.14,0,0,1,5.21,1.13c.47-.19,1-.37,1.45-.55a20.72,20.72,0,0,1,7-1.18A14,14,0,0,1,110.35,68a16.25,16.25,0,0,1,7.27,7.54A14.22,14.22,0,0,1,119,81a11.45,11.45,0,0,1,4,2.41,11,11,0,0,1,3.61,8.19,11.16,11.16,0,0,1-.88,4.35q-.18.43-.42.9a11.27,11.27,0,0,1-.77,1.51,30.91,30.91,0,0,1-4.34,5.47,26.85,26.85,0,0,1-5.18,4A17.68,17.68,0,0,1,105.74,110.45Z" class="cls-1" transform="translate(-1 -1.09)"/><path d="M121.22,110.45a19.11,19.11,0,0,1-6.16-1,19.34,19.34,0,0,1-5.67-3.06,18.54,18.54,0,0,1-4.41-4.93,15.52,15.52,0,0,1-2.28-8.11,29.16,29.16,0,0,1,.43-4.71c.25-1.49.58-3.11,1-4.8.29-1.18.62-2.4,1-3.64a10.9,10.9,0,0,1-.66-3.77,13,13,0,0,1,5.36-10c.06-.16.13-.31.19-.47a40.53,40.53,0,0,1,2.17-4.46,12.43,12.43,0,0,1,3.23-3.84,11.51,11.51,0,0,1,7.15-2.47,13.11,13.11,0,0,1,6.06,1.54,19.09,19.09,0,0,1,3.14,2,18.19,18.19,0,0,1,2.79,2.75,11.73,11.73,0,0,1,2.65,6.44,10.59,10.59,0,0,1,2.56,7,11.28,11.28,0,0,1-1.24,5.07A14.07,14.07,0,0,1,137,82.28a11.52,11.52,0,0,1,1.47,1.16,11,11,0,0,1,3.62,8.19A11.16,11.16,0,0,1,141.2,96l-.41.89a10.37,10.37,0,0,1-.78,1.52,31.47,31.47,0,0,1-4.34,5.47,26.85,26.85,0,0,1-5.18,4A17.71,17.71,0,0,1,121.22,110.45Z" class="cls-1" transform="translate(-1 -1.09)"/><path d="M137.78,110.45a20,20,0,0,1-13.2-5,18.54,18.54,0,0,1-4.43-5.86A17.53,17.53,0,0,1,118.42,92a26.24,26.24,0,0,1,2.15-10.74,25.42,25.42,0,0,1,5.5-8,24.3,24.3,0,0,1,7.64-5.06,22.49,22.49,0,0,1,8.63-1.78,20,20,0,0,1,6.95,1.22,17.71,17.71,0,0,1,6.39,4.08,18.94,18.94,0,0,1,5.08,9.51,11.44,11.44,0,0,1,3.58,2.25,11,11,0,0,1,3.6,8.18,11.16,11.16,0,0,1-.88,4.35l-.41.89a9.67,9.67,0,0,1-1,1.82,19.88,19.88,0,0,1-4.95,5,23.82,23.82,0,0,1-5.47,3,22.25,22.25,0,0,1-8.1,1.49,21.69,21.69,0,0,1-2.31,1A20.57,20.57,0,0,1,137.78,110.45Z" class="cls-1" transform="translate(-1 -1.09)"/><path d="M175.58,110.45a18.85,18.85,0,0,1-9.26-2.27,7.85,7.85,0,0,1-.66.47,11.69,11.69,0,0,1-6.4,1.8,17.82,17.82,0,0,1-9-2.26,12.56,12.56,0,0,1-6.64-11,36.72,36.72,0,0,1,.77-7.31c.44-2.16,1-4.26,1.57-6.27s1.16-3.7,1.77-5.39,1.12-3,1.55-4A11.61,11.61,0,0,1,160.1,67a13.14,13.14,0,0,1,5.21,1.13c.47-.19.95-.37,1.44-.55a20.82,20.82,0,0,1,7-1.18A14,14,0,0,1,180.19,68a16.25,16.25,0,0,1,7.27,7.54A14.22,14.22,0,0,1,188.81,81a11.32,11.32,0,0,1,4,2.41,11,11,0,0,1,3.62,8.19,11.2,11.2,0,0,1-.88,4.35c-.13.29-.26.59-.42.9a11.27,11.27,0,0,1-.77,1.51,31.85,31.85,0,0,1-4.34,5.47,26.85,26.85,0,0,1-5.18,4A17.68,17.68,0,0,1,175.58,110.45Z" class="cls-1" transform="translate(-1 -1.09)"/><path d="M189.92,110.45a18,18,0,0,1-12.09-4.29,16.07,16.07,0,0,1-5.53-12.31,26.62,26.62,0,0,1,.81-6.21c.4-1.71.88-3.47,1.43-5.25s1.14-3.49,1.76-5.1,1.07-2.74,1.48-3.7c.08-.17.16-.35.25-.52a12.05,12.05,0,0,1,2.57-3.47,13.3,13.3,0,0,1-.08-1.55,16.11,16.11,0,0,1,1.1-5.85,17.21,17.21,0,0,1,2.6-4.54,15.36,15.36,0,0,1,4.49-3.86A13.87,13.87,0,0,1,195.56,52a12.93,12.93,0,0,1,9.37,3.94,13.38,13.38,0,0,1,3.69,9.36,16.72,16.72,0,0,1-1,5.62A16.54,16.54,0,0,1,205,75.79a15.7,15.7,0,0,1-1.84,2,10.63,10.63,0,0,1,.2,2,19,19,0,0,1-.94,5.76,11.16,11.16,0,0,1,3,15.78,9.64,9.64,0,0,1-1,1.38,27.3,27.3,0,0,1-3.22,3.23,20.73,20.73,0,0,1-4.12,2.76A15.48,15.48,0,0,1,189.92,110.45Z" class="cls-1" transform="translate(-1 -1.09)"/><path d="M22.58,47.15a2.54,2.54,0,0,0,.51,1.65,1.71,1.71,0,0,0,1.41.63,4.24,4.24,0,0,0,2.37-.78,10.55,10.55,0,0,0,2.07-1.8,13.31,13.31,0,0,0,2-2.58,1.18,1.18,0,0,1,.3-.42,2.08,2.08,0,0,1,.36-.27,1,1,0,0,1,.54-.15,1.25,1.25,0,0,1,.87.36,1.11,1.11,0,0,1,.39.84,1.13,1.13,0,0,1-.09.45q-.09.21-.21.45t-.24.54a21.15,21.15,0,0,1-2.94,3.72,17,17,0,0,1-3.27,2.52,7.81,7.81,0,0,1-4.11,1.14A8.1,8.1,0,0,1,17,51.62a6,6,0,0,1-2.1-4.77,17.35,17.35,0,0,1,.54-3.9q.54-2.28,1.26-4.62t1.53-4.44q.81-2.1,1.35-3.36a2.36,2.36,0,0,1,.66-.81,1.51,1.51,0,0,1,1-.33,3.43,3.43,0,0,1,1.5.42,10.18,10.18,0,0,1,1.56,1,7.23,7.23,0,0,1,1.2,1.11,1.64,1.64,0,0,1,.48.93,9.27,9.27,0,0,1-.54,3q-.54,1.59-1.17,3.39T23.09,43A16.89,16.89,0,0,0,22.58,47.15Zm8.64-28.86a6.92,6.92,0,0,1-.39,2.31,6.77,6.77,0,0,1-1.08,2A5.62,5.62,0,0,1,28.19,24a3.56,3.56,0,0,1-1.83.51,3.22,3.22,0,0,1-2.28-.9,3.29,3.29,0,0,1-1-2.52,6.08,6.08,0,0,1,.42-2.22,7.48,7.48,0,0,1,1.11-1.95,5.46,5.46,0,0,1,1.59-1.38A3.83,3.83,0,0,1,28.16,15a2.92,2.92,0,0,1,2.19.9A3.31,3.31,0,0,1,31.22,18.29Z" class="cls-2" transform="translate(-1 -1.09)"/><path d="M57.86,46.07A15.06,15.06,0,0,1,54,50a21.71,21.71,0,0,1-5.25,2.7,22.46,22.46,0,0,1-7.83,1.2,10.33,10.33,0,0,1-4.2-.87,12.86,12.86,0,0,1-3.45-2.19,11.23,11.23,0,0,1-2.34-2.88A6,6,0,0,1,30,45.05a3,3,0,0,1,.9-2.22,8.91,8.91,0,0,1,2-1.5,13.49,13.49,0,0,1,2.88-1.08q.36-.6,1-1.5t1.26-2q.78-1.17,1.8-2.79a20.61,20.61,0,0,1,3.6-4.41A4.44,4.44,0,0,1,46,28.37a2.11,2.11,0,0,1,1,.27,6.11,6.11,0,0,1,1,.63,4.07,4.07,0,0,1,.72.72,1.09,1.09,0,0,1,.27.6,1.69,1.69,0,0,1-.24.75l-.51,1a8.83,8.83,0,0,0-.48,1.08,3.36,3.36,0,0,0-.21,1.17,12,12,0,0,0,.36,3.12,26,26,0,0,0,.81,2.49q.45,1.17.81,2.28a8,8,0,0,1,.36,2.49,8.15,8.15,0,0,1-.21,2,7.2,7.2,0,0,1-.51,1.41,6.11,6.11,0,0,1-.66,1.14,12.08,12.08,0,0,0,3.15-1.35A17.82,17.82,0,0,0,54,46.43a16.15,16.15,0,0,0,1.92-2.16,1.18,1.18,0,0,1,.3-.42,2.08,2.08,0,0,1,.36-.27,1,1,0,0,1,.54-.15,1.25,1.25,0,0,1,.87.36,1.11,1.11,0,0,1,.39.84,1.13,1.13,0,0,1-.09.45q-.09.21-.21.45T57.86,46.07ZM40.94,36.83q-1.26,1.92-2.22,3.48-.84,1.38-1.53,2.58a4.87,4.87,0,0,0-.69,1.5,21.06,21.06,0,0,0,.15,2.55,9.52,9.52,0,0,0,.51,2.19,4.49,4.49,0,0,0,.9,1.53,1.82,1.82,0,0,0,1.38.57,2.83,2.83,0,0,0,2.37-1.5,6.28,6.28,0,0,0,1-3.54,10.37,10.37,0,0,0-.3-2.4q-.3-1.26-.63-2.49t-.63-2.4A8.46,8.46,0,0,1,40.94,36.83Z" class="cls-2" transform="translate(-1 -1.09)"/><path d="M86.84,46.07a21.15,21.15,0,0,1-2.94,3.72,17,17,0,0,1-3.27,2.52,7.81,7.81,0,0,1-4.11,1.14,7,7,0,0,1-4.26-1.29,5.27,5.27,0,0,1-2-3.81,15.73,15.73,0,0,1-2.58,2.58,16.47,16.47,0,0,1-2.7,1.74,6.92,6.92,0,0,1-3.24.78A6.09,6.09,0,0,1,59.39,53a5.51,5.51,0,0,1-1.92-1.29,6.37,6.37,0,0,1-1.77-4.5,17.67,17.67,0,0,1,1.23-6.42,22.53,22.53,0,0,1,3.21-5.73A17.51,17.51,0,0,1,64.58,31a9.2,9.2,0,0,1,8-1.11,8.82,8.82,0,0,1,2,1A6.82,6.82,0,0,1,76,32.21a7.21,7.21,0,0,1,1.41.15,5.12,5.12,0,0,1,1.38.48,3.18,3.18,0,0,1,1,.87A2.08,2.08,0,0,1,80.3,35a7.44,7.44,0,0,1-.54,2.16l-1.2,3.33q-.66,1.83-1.2,3.78a13.13,13.13,0,0,0-.54,3.45,1.69,1.69,0,0,0,.45,1.2,1.6,1.6,0,0,0,1.23.48,4.24,4.24,0,0,0,2.37-.78,10.55,10.55,0,0,0,2.07-1.8,13.31,13.31,0,0,0,2-2.58,1.18,1.18,0,0,1,.3-.42,2.08,2.08,0,0,1,.36-.27,1,1,0,0,1,.54-.15,1.25,1.25,0,0,1,.87.36,1.11,1.11,0,0,1,.39.84,1.13,1.13,0,0,1-.09.45q-.09.21-.21.45T86.84,46.07ZM72.92,35.45a2.66,2.66,0,0,0-.63-2,2.08,2.08,0,0,0-1.53-.63,3.93,3.93,0,0,0-2.7,1.38,15,15,0,0,0-2.49,3.39A22.9,22.9,0,0,0,63.74,42a14.45,14.45,0,0,0-.72,4.2q0,2.7,1.74,2.7a3.85,3.85,0,0,0,2.49-1.44,19,19,0,0,0,2.67-3.54,27.16,27.16,0,0,0,2.13-4.41A11.74,11.74,0,0,0,72.92,35.45Z" class="cls-2" transform="translate(-1 -1.09)"/><path d="M114,46.07a9.89,9.89,0,0,1-2.58,2.58,13.57,13.57,0,0,1-3.27,1.8,12.32,12.32,0,0,1-4.59.78h-1a4.83,4.83,0,0,1-1-.12,11.51,11.51,0,0,1-7.2,2.34,8.08,8.08,0,0,1-3.18-.69,10.93,10.93,0,0,1-3-1.92A10.19,10.19,0,0,1,85.91,48,7.54,7.54,0,0,1,85,44.39a47.47,47.47,0,0,1,.6-7.32,60.69,60.69,0,0,1,1.68-7.56,50.75,50.75,0,0,1,2.61-7,33.08,33.08,0,0,1,3.39-5.85,17.7,17.7,0,0,1,4-4,7.65,7.65,0,0,1,4.47-1.5,4.24,4.24,0,0,1,2,.51,6.26,6.26,0,0,1,1.74,1.32,7.87,7.87,0,0,1,1.23,1.74,3.77,3.77,0,0,1,.48,1.71,7.4,7.4,0,0,1-.63,2.79A25.21,25.21,0,0,1,105,22.28a33.7,33.7,0,0,1-2.07,3.12q-1.14,1.53-2.1,2.73T99.2,30.08l-.72.81a3.68,3.68,0,0,1,.48-.3q.42-.24,1-.51a8.36,8.36,0,0,1,1.32-.48,5.65,5.65,0,0,1,1.53-.21,4.82,4.82,0,0,1,2.28.57,6.53,6.53,0,0,1,1.89,1.5,7.65,7.65,0,0,1,1.29,2.07,5.84,5.84,0,0,1,.48,2.28,21,21,0,0,1-1.08,6.42,18.84,18.84,0,0,1-3.24,6.06,2.11,2.11,0,0,0,.6.06,6.22,6.22,0,0,0,2.82-.63,12.05,12.05,0,0,0,2.22-1.41,16.38,16.38,0,0,0,2-2,1.18,1.18,0,0,1,.3-.42,2.08,2.08,0,0,1,.36-.27,1,1,0,0,1,.54-.15,1.25,1.25,0,0,1,.87.36,1.11,1.11,0,0,1,.39.84,1.13,1.13,0,0,1-.09.45q-.09.21-.21.45T114,46.07Zm-22.26-.18A6.43,6.43,0,0,0,92.45,49a2.1,2.1,0,0,0,1.89,1.26,3.16,3.16,0,0,0,2-.84,1.43,1.43,0,0,1-.48-1,2,2,0,0,1,.33-1,4.13,4.13,0,0,1,.81-1,5.21,5.21,0,0,1,1-.69,1.94,1.94,0,0,1,.87-.27H99a22.9,22.9,0,0,0,1.62-4.53,19,19,0,0,0,.6-4.53,6.93,6.93,0,0,0-.42-2.7,1.86,1.86,0,0,0-1.92-1,4,4,0,0,0-2,.81A9.17,9.17,0,0,0,94.52,36a15.5,15.5,0,0,0-2,4.08A18.67,18.67,0,0,0,91.76,45.89Zm11.88-29.58q0-1.2-1.14-1.2-.84,0-2,1.47a25,25,0,0,0-2.37,3.87A52.85,52.85,0,0,0,95.75,26a61.42,61.42,0,0,0-2,6.42A36.79,36.79,0,0,0,97,28.76q1.74-2.19,3.24-4.5a33.44,33.44,0,0,0,2.46-4.44A9,9,0,0,0,103.64,16.31Z" class="cls-2" transform="translate(-1 -1.09)"/><path d="M135.92,46.07a15.32,15.32,0,0,1-3.3,3.72,19,19,0,0,1-4.17,2.52,14.1,14.1,0,0,1-5.91,1.14,12.84,12.84,0,0,1-4.2-.66A10.14,10.14,0,0,1,115,51a8.39,8.39,0,0,1-2.16-2.79,8.05,8.05,0,0,1-.78-3.54,15.13,15.13,0,0,1,1.26-6.24,16.89,16.89,0,0,1,3.18-4.83,14.38,14.38,0,0,1,4.17-3.09,9.82,9.82,0,0,1,4.23-1.08,6.21,6.21,0,0,1,2.58.54,7.3,7.3,0,0,1,2.1,1.41,6.41,6.41,0,0,1,1.41,2,5.67,5.67,0,0,1,.51,2.34,9,9,0,0,1-.48,2.61,8.87,8.87,0,0,1-1.59,2.91,9.33,9.33,0,0,1-3,2.37,10.08,10.08,0,0,1-4.71,1,5.69,5.69,0,0,1-1.38-.18,8.94,8.94,0,0,1-.9-.18A5.35,5.35,0,0,0,121,48.35a5.3,5.3,0,0,0,3.72,1.44,8.46,8.46,0,0,0,3.84-.87A14.62,14.62,0,0,0,131.54,47,12.43,12.43,0,0,0,134,44.27a1.18,1.18,0,0,1,.3-.42,2.08,2.08,0,0,1,.36-.27,1,1,0,0,1,.54-.15,1.25,1.25,0,0,1,.87.36,1.11,1.11,0,0,1,.39.84,1.13,1.13,0,0,1-.09.45q-.09.21-.21.45T135.92,46.07Zm-16.14-4.32a5.68,5.68,0,0,0,3.06-.9,10.06,10.06,0,0,0,2.49-2.19A11.5,11.5,0,0,0,127,36a6.1,6.1,0,0,0,.6-2.34q0-1.2-1.08-1.2a3.78,3.78,0,0,0-2.46,1,11.11,11.11,0,0,0-2.13,2.46A15.63,15.63,0,0,0,120.38,39,8.21,8.21,0,0,0,119.78,41.75Z" class="cls-2" transform="translate(-1 -1.09)"/><path d="M143.24,53.45a10,10,0,0,1-3.45-.6,8.5,8.5,0,0,1-2.91-1.77,8.64,8.64,0,0,1-2-2.85,9.18,9.18,0,0,1-.75-3.78,36.22,36.22,0,0,1,.69-6.66,53.28,53.28,0,0,1,1.95-7.35,68,68,0,0,1,2.91-7.17,39,39,0,0,1,3.63-6.21,20.59,20.59,0,0,1,4.11-4.35,7.06,7.06,0,0,1,4.29-1.62,4,4,0,0,1,1.92.48,6.28,6.28,0,0,1,1.59,1.2,6.16,6.16,0,0,1,1.11,1.59,3.8,3.8,0,0,1,.42,1.65,10.09,10.09,0,0,1-.69,3.21,35.8,35.8,0,0,1-1.83,4.2q-1.14,2.25-2.67,4.65t-3.18,4.65Q146.72,35,145,36.92a28.45,28.45,0,0,1-3.18,3.21q-.12.72-.24,1.5a14.08,14.08,0,0,0-.18,1.47q-.06.81-.06,1.59a5.55,5.55,0,0,0,1,3.42,3.35,3.35,0,0,0,2.85,1.32,4.24,4.24,0,0,0,2.37-.78,10.55,10.55,0,0,0,2.07-1.8,13.31,13.31,0,0,0,2-2.58,1.18,1.18,0,0,1,.3-.42,2.08,2.08,0,0,1,.36-.27,1,1,0,0,1,.54-.15,1.25,1.25,0,0,1,.87.36,1.11,1.11,0,0,1,.39.84,1.13,1.13,0,0,1-.09.45q-.09.21-.21.45t-.24.54a21.15,21.15,0,0,1-2.94,3.72,17,17,0,0,1-3.27,2.52A7.81,7.81,0,0,1,143.24,53.45ZM153.74,16q0-.84-.72-.84T150.83,17A33.47,33.47,0,0,0,148,21.83q-1.47,3-2.91,6.72a57.93,57.93,0,0,0-2.34,7.5,15.83,15.83,0,0,0,2.25-2.4,36.93,36.93,0,0,0,2.43-3.51q1.2-2,2.34-4.05t2-4.05q.87-2,1.41-3.57A8.63,8.63,0,0,0,153.74,16Z" class="cls-2" transform="translate(-1 -1.09)"/><path d="M160.88,53.45a10,10,0,0,1-3.45-.6,8.5,8.5,0,0,1-2.91-1.77,8.64,8.64,0,0,1-2-2.85,9.18,9.18,0,0,1-.75-3.78,36.22,36.22,0,0,1,.69-6.66,53.28,53.28,0,0,1,2-7.35,68,68,0,0,1,2.91-7.17,39,39,0,0,1,3.63-6.21,20.59,20.59,0,0,1,4.11-4.35,7.06,7.06,0,0,1,4.29-1.62,4,4,0,0,1,1.92.48,6.28,6.28,0,0,1,1.59,1.2A6.16,6.16,0,0,1,174,14.36a3.8,3.8,0,0,1,.42,1.65,10.09,10.09,0,0,1-.69,3.21,35.8,35.8,0,0,1-1.83,4.2q-1.14,2.25-2.67,4.65T166,32.72q-1.65,2.25-3.33,4.2a28.45,28.45,0,0,1-3.18,3.21q-.12.72-.24,1.5a14.08,14.08,0,0,0-.18,1.47q-.06.81-.06,1.59a5.55,5.55,0,0,0,1,3.42,3.35,3.35,0,0,0,2.85,1.32,4.24,4.24,0,0,0,2.37-.78,10.55,10.55,0,0,0,2.07-1.8,13.31,13.31,0,0,0,2-2.58,1.18,1.18,0,0,1,.3-.42,2.08,2.08,0,0,1,.36-.27,1,1,0,0,1,.54-.15,1.25,1.25,0,0,1,.87.36,1.11,1.11,0,0,1,.39.84,1.13,1.13,0,0,1-.09.45q-.09.21-.21.45t-.24.54a21.15,21.15,0,0,1-2.94,3.72A17,17,0,0,1,165,52.31,7.81,7.81,0,0,1,160.88,53.45ZM171.38,16q0-.84-.72-.84T168.47,17a33.47,33.47,0,0,0-2.82,4.86q-1.47,3-2.91,6.72a57.93,57.93,0,0,0-2.34,7.5,15.83,15.83,0,0,0,2.25-2.4,36.93,36.93,0,0,0,2.43-3.51q1.2-2,2.34-4.05t2-4.05q.87-2,1.41-3.57A8.63,8.63,0,0,0,171.38,16Z" class="cls-2" transform="translate(-1 -1.09)"/><path d="M196.7,49.25a17.34,17.34,0,0,1-2.1,2.1,10.74,10.74,0,0,1-2.19,1.47,5.53,5.53,0,0,1-2.55.63,7,7,0,0,1-4.26-1.29,5.27,5.27,0,0,1-2-3.81A15.73,15.73,0,0,1,181,50.93a16.47,16.47,0,0,1-2.7,1.74,6.92,6.92,0,0,1-3.24.78,6.09,6.09,0,0,1-2.31-.45,5.51,5.51,0,0,1-1.92-1.29,6.37,6.37,0,0,1-1.77-4.5,17.67,17.67,0,0,1,1.23-6.42,22.53,22.53,0,0,1,3.21-5.73A17.51,17.51,0,0,1,177.92,31a9.2,9.2,0,0,1,8-1.11,8.82,8.82,0,0,1,2,1,6.82,6.82,0,0,1,1.44,1.38,7.21,7.21,0,0,1,1.41.15,5.12,5.12,0,0,1,1.38.48,3.18,3.18,0,0,1,1.05.87,2.08,2.08,0,0,1,.42,1.32,7.44,7.44,0,0,1-.54,2.16l-1.2,3.33q-.66,1.83-1.2,3.78a13.13,13.13,0,0,0-.54,3.45,1.69,1.69,0,0,0,.45,1.2,1.6,1.6,0,0,0,1.23.48,1.8,1.8,0,0,0,1-.3q.48-.3,1-.66a6.15,6.15,0,0,0,1-1,4.81,4.81,0,0,1,.54-.57,1,1,0,0,1,.72-.27,1.45,1.45,0,0,1,1.32,1.32,1.48,1.48,0,0,1-.36.84A3.15,3.15,0,0,0,196.7,49.25Zm-10.44-13.8a2.66,2.66,0,0,0-.63-2,2.08,2.08,0,0,0-1.53-.63,3.93,3.93,0,0,0-2.7,1.38,15,15,0,0,0-2.49,3.39A22.9,22.9,0,0,0,177.08,42a14.45,14.45,0,0,0-.72,4.2q0,2.7,1.74,2.7a3.85,3.85,0,0,0,2.49-1.44,19,19,0,0,0,2.67-3.54,27.16,27.16,0,0,0,2.13-4.41A11.74,11.74,0,0,0,186.26,35.45Z" class="cls-2" transform="translate(-1 -1.09)"/><path d="M45.56,93.07A9.89,9.89,0,0,1,43,95.65a13.57,13.57,0,0,1-3.27,1.8,12.32,12.32,0,0,1-4.59.78l-.9,0q-.48,0-1-.09a11.76,11.76,0,0,1-3,1.71,9.35,9.35,0,0,1-3.42.63,6.75,6.75,0,0,1-2.55-.45,8,8,0,0,1-1.89-1,7.21,7.21,0,0,1-1.56-1.56,28.65,28.65,0,0,0-1.11,3.51q-.57,2.19-1.05,4.65t-.78,4.86a34.05,34.05,0,0,0-.3,4.14q0,1.32-1.14,1.32a8.45,8.45,0,0,1-1.8-.21,5.93,5.93,0,0,1-1.77-.69,4,4,0,0,1-1.35-1.32,3.69,3.69,0,0,1-.54-2,21.24,21.24,0,0,1,.42-3.39q.42-2.31,1.08-5.31t1.56-6.45Q15,93,15.89,89.62t1.86-6.39q.93-3,1.71-5.1A1.7,1.7,0,0,1,21.14,77a4,4,0,0,1,1.71.54,7.68,7.68,0,0,1,2.43,2.7,22.67,22.67,0,0,1,2.58-1.92A19.45,19.45,0,0,1,30.35,77a6.67,6.67,0,0,1,2.73-.6,6.25,6.25,0,0,1,2.94.69,7.55,7.55,0,0,1,2.25,1.77,8.71,8.71,0,0,1,1.47,2.4,6.93,6.93,0,0,1,.54,2.64,17,17,0,0,1-1.11,5.64A20.73,20.73,0,0,1,36,95.29a1.82,1.82,0,0,0,.54.06,6.22,6.22,0,0,0,2.82-.63,12.05,12.05,0,0,0,2.22-1.41,16.38,16.38,0,0,0,2-2,1.18,1.18,0,0,1,.3-.42,2.08,2.08,0,0,1,.36-.27,1,1,0,0,1,.54-.15,1.25,1.25,0,0,1,.87.36,1.11,1.11,0,0,1,.39.84,1.13,1.13,0,0,1-.09.45q-.09.21-.21.45T45.56,93.07ZM22.4,92.53a5.88,5.88,0,0,0,.9,3.18,2.73,2.73,0,0,0,2.4,1.44,3,3,0,0,0,2-.9,1.44,1.44,0,0,1-.3-.84,1.82,1.82,0,0,1,.33-1,4.94,4.94,0,0,1,.78-.93,5.47,5.47,0,0,1,1-.72,1.8,1.8,0,0,1,.87-.3A25.26,25.26,0,0,0,31.4,90q.48-1.29.81-2.52t.51-2.28a10.78,10.78,0,0,0,.18-1.77,3.83,3.83,0,0,0-.51-2.28,1.81,1.81,0,0,0-1.53-.66,4.16,4.16,0,0,0-2.64,1.29,18.85,18.85,0,0,0-2.76,3.15,20.49,20.49,0,0,0-2.19,3.93A9.69,9.69,0,0,0,22.4,92.53Z" class="cls-2" transform="translate(-1 -1.09)"/><path d="M49.64,94.15a2.54,2.54,0,0,0,.51,1.65,1.71,1.71,0,0,0,1.41.63,4.24,4.24,0,0,0,2.37-.78A10.55,10.55,0,0,0,56,93.85a13.31,13.31,0,0,0,2-2.58,1.18,1.18,0,0,1,.3-.42,2.08,2.08,0,0,1,.36-.27,1,1,0,0,1,.54-.15,1.25,1.25,0,0,1,.87.36,1.11,1.11,0,0,1,.39.84,1.13,1.13,0,0,1-.09.45q-.09.21-.21.45t-.24.54A21.15,21.15,0,0,1,57,96.79a17,17,0,0,1-3.27,2.52,7.81,7.81,0,0,1-4.11,1.14,8.1,8.1,0,0,1-5.52-1.83A6,6,0,0,1,42,93.85,17.35,17.35,0,0,1,42.5,90q.54-2.28,1.26-4.62t1.53-4.44q.81-2.1,1.35-3.36a2.36,2.36,0,0,1,.66-.81,1.51,1.51,0,0,1,1-.33,3.43,3.43,0,0,1,1.5.42,10.18,10.18,0,0,1,1.56,1,7.23,7.23,0,0,1,1.2,1.11,1.64,1.64,0,0,1,.48.93,9.27,9.27,0,0,1-.54,3q-.54,1.59-1.17,3.39T50.15,90A16.89,16.89,0,0,0,49.64,94.15Zm8.64-28.86a6.92,6.92,0,0,1-.39,2.31,6.77,6.77,0,0,1-1.08,2A5.62,5.62,0,0,1,55.25,71a3.56,3.56,0,0,1-1.83.51,3.22,3.22,0,0,1-2.28-.9,3.29,3.29,0,0,1-1-2.52,6.08,6.08,0,0,1,.42-2.22,7.48,7.48,0,0,1,1.11-1.95A5.46,5.46,0,0,1,53.3,62.5,3.83,3.83,0,0,1,55.22,62a2.92,2.92,0,0,1,2.19.9A3.31,3.31,0,0,1,58.28,65.29Z" class="cls-2" transform="translate(-1 -1.09)"/><path d="M87.56,93.07a21.15,21.15,0,0,1-2.94,3.72,17,17,0,0,1-3.27,2.52,7.81,7.81,0,0,1-4.11,1.14A7,7,0,0,1,73,99.16a5.27,5.27,0,0,1-2-3.81,15.73,15.73,0,0,1-2.58,2.58,16.47,16.47,0,0,1-2.7,1.74,6.92,6.92,0,0,1-3.24.78,6.09,6.09,0,0,1-2.31-.45,5.51,5.51,0,0,1-1.92-1.29,6.37,6.37,0,0,1-1.77-4.5,17.67,17.67,0,0,1,1.23-6.42,22.53,22.53,0,0,1,3.21-5.73A17.51,17.51,0,0,1,65.3,78a9.2,9.2,0,0,1,8-1.11,8.82,8.82,0,0,1,2,1,6.82,6.82,0,0,1,1.44,1.38,7.21,7.21,0,0,1,1.41.15,5.12,5.12,0,0,1,1.38.48,3.18,3.18,0,0,1,1,.87A2.08,2.08,0,0,1,81,82a7.44,7.44,0,0,1-.54,2.16l-1.2,3.33q-.66,1.83-1.2,3.78a13.13,13.13,0,0,0-.54,3.45A1.69,1.69,0,0,0,78,96a1.6,1.6,0,0,0,1.23.48,4.24,4.24,0,0,0,2.37-.78,10.55,10.55,0,0,0,2.07-1.8,13.31,13.31,0,0,0,2-2.58,1.18,1.18,0,0,1,.3-.42,2.08,2.08,0,0,1,.36-.27,1,1,0,0,1,.54-.15,1.25,1.25,0,0,1,.87.36,1.11,1.11,0,0,1,.39.84,1.13,1.13,0,0,1-.09.45q-.09.21-.21.45T87.56,93.07ZM73.64,82.45a2.66,2.66,0,0,0-.63-2,2.08,2.08,0,0,0-1.53-.63,3.93,3.93,0,0,0-2.7,1.38,15,15,0,0,0-2.49,3.39A22.9,22.9,0,0,0,64.46,89a14.45,14.45,0,0,0-.72,4.2q0,2.7,1.74,2.7A3.85,3.85,0,0,0,68,94.45a19,19,0,0,0,2.67-3.54,27.16,27.16,0,0,0,2.13-4.41A11.74,11.74,0,0,0,73.64,82.45Z" class="cls-2" transform="translate(-1 -1.09)"/><path d="M105.8,94.15a2.54,2.54,0,0,0,.51,1.65,1.71,1.71,0,0,0,1.41.63,4.24,4.24,0,0,0,2.37-.78,10.55,10.55,0,0,0,2.07-1.8,13.31,13.31,0,0,0,2-2.58,1.18,1.18,0,0,1,.3-.42,2.08,2.08,0,0,1,.36-.27,1,1,0,0,1,.54-.15,1.25,1.25,0,0,1,.87.36,1.11,1.11,0,0,1,.39.84,1.13,1.13,0,0,1-.09.45q-.09.21-.21.45t-.24.54a21.15,21.15,0,0,1-2.94,3.72,17,17,0,0,1-3.27,2.52,7.81,7.81,0,0,1-4.11,1.14,8.28,8.28,0,0,1-5.52-1.77,5.42,5.42,0,0,1-2.1-4.29,13.15,13.15,0,0,1,.48-3.57q.48-1.71,1.05-3.33t1-3.09a9.16,9.16,0,0,0,.48-2.85.83.83,0,0,0-.36-.69,1.36,1.36,0,0,0-.84-.27,4.85,4.85,0,0,0-3,1.29,13.36,13.36,0,0,0-3,3.72,24.34,24.34,0,0,0-2.34,5.88,29.88,29.88,0,0,0-.93,7.77q0,.78-.33,1a1.87,1.87,0,0,1-1,.21,8,8,0,0,1-4-.93,2.72,2.72,0,0,1-1.62-2.37,26.55,26.55,0,0,1,.57-5.31q.57-2.79,1.35-5.4t1.59-4.83q.81-2.22,1.35-3.48A1.66,1.66,0,0,1,90.26,77a4.19,4.19,0,0,1,1.74.54,7.51,7.51,0,0,1,2.46,2.7,15.89,15.89,0,0,1,2.82-1.92,21.07,21.07,0,0,1,3-1.32,10.62,10.62,0,0,1,3.6-.6,4.08,4.08,0,0,1,1.89.48,6.24,6.24,0,0,1,1.65,1.23,6.1,6.1,0,0,1,1.14,1.65,4.22,4.22,0,0,1,.42,1.8,9.2,9.2,0,0,1-.51,2.91Q108,86,107.39,87.61t-1.08,3.27A11,11,0,0,0,105.8,94.15Z" class="cls-2" transform="translate(-1 -1.09)"/><path d="M123.2,96.43a4.24,4.24,0,0,0,2.37-.78,10.55,10.55,0,0,0,2.07-1.8,13.31,13.31,0,0,0,2-2.58,1.18,1.18,0,0,1,.3-.42,2.08,2.08,0,0,1,.36-.27,1,1,0,0,1,.54-.15,1.25,1.25,0,0,1,.87.36,1.11,1.11,0,0,1,.39.84,1.13,1.13,0,0,1-.09.45q-.09.21-.21.45t-.24.54a21.15,21.15,0,0,1-2.94,3.72,17,17,0,0,1-3.27,2.52,7.81,7.81,0,0,1-4.11,1.14,9.1,9.1,0,0,1-2.94-.51,9.24,9.24,0,0,1-2.73-1.47,8.53,8.53,0,0,1-2-2.28,5.4,5.4,0,0,1-.81-2.88,19.64,19.64,0,0,1,.3-3.09q.3-1.83.84-4t1.23-4.56q.69-2.4,1.47-4.74h-1.62q-.48,0-.48-.54A2.52,2.52,0,0,1,115,75.1a1.56,1.56,0,0,1,1.23-.81h1.2q.9-2.46,1.77-4.53a30.48,30.48,0,0,1,1.71-3.51,2.36,2.36,0,0,1,.66-.81,1.51,1.51,0,0,1,1-.33,3.25,3.25,0,0,1,1.47.42,9.52,9.52,0,0,1,1.53,1,7.44,7.44,0,0,1,1.2,1.17,1.78,1.78,0,0,1,.48,1,7.36,7.36,0,0,1-.57,1.89q-.57,1.47-1.41,3.69h4q.48,0,.48.54a1.42,1.42,0,0,1-.18.6,3.71,3.71,0,0,1-.45.69,3.84,3.84,0,0,1-.57.57,1,1,0,0,1-.6.24h-3.72q-.72,2-1.47,4.2t-1.35,4.38q-.6,2.16-1,4.17a19.23,19.23,0,0,0-.39,3.63,2.94,2.94,0,0,0,.93,2.25A3.17,3.17,0,0,0,123.2,96.43Z" class="cls-2" transform="translate(-1 -1.09)"/><path d="M157.4,93.07a9.89,9.89,0,0,1-2.58,2.58,13.57,13.57,0,0,1-3.27,1.8,12.32,12.32,0,0,1-4.59.78,16.62,16.62,0,0,1-2.34-.18,11.27,11.27,0,0,1-3.18,1.77,10.67,10.67,0,0,1-3.66.63A10,10,0,0,1,131.21,98a8.46,8.46,0,0,1-2-2.7,7.52,7.52,0,0,1-.75-3.3,16.36,16.36,0,0,1,1.29-6.69A15.44,15.44,0,0,1,133,80.41a14.3,14.3,0,0,1,4.5-3,12.49,12.49,0,0,1,4.8-1,9.94,9.94,0,0,1,3.48.6,7.65,7.65,0,0,1,2.79,1.77,8.66,8.66,0,0,1,1.86,2.82,9.48,9.48,0,0,1,.69,3.69,14.35,14.35,0,0,1-1,5,19.16,19.16,0,0,1-2.73,4.92l.45.09a3.68,3.68,0,0,0,.51,0,6.22,6.22,0,0,0,2.82-.63,12.05,12.05,0,0,0,2.22-1.41,16.38,16.38,0,0,0,2-2,1.18,1.18,0,0,1,.3-.42,2.08,2.08,0,0,1,.36-.27,1,1,0,0,1,.54-.15,1.25,1.25,0,0,1,.87.36,1.11,1.11,0,0,1,.39.84,1.13,1.13,0,0,1-.09.45q-.09.21-.21.45T157.4,93.07Zm-21.9.42a5.26,5.26,0,0,0,.75,2.94,2.4,2.4,0,0,0,2.13,1.14,3,3,0,0,0,1.86-.72,1.81,1.81,0,0,1-1-1.44,2,2,0,0,1,.33-1,4.13,4.13,0,0,1,.81-1,5.21,5.21,0,0,1,1-.69,1.94,1.94,0,0,1,.87-.27,2.1,2.1,0,0,1,.66.12,26.45,26.45,0,0,0,1.38-4.83,24.8,24.8,0,0,0,.48-4.53,4.92,4.92,0,0,0-.66-2.91,2,2,0,0,0-1.68-.87,3.52,3.52,0,0,0-2.22,1,10.9,10.9,0,0,0-2.25,2.94,19.76,19.76,0,0,0-1.74,4.44A21.45,21.45,0,0,0,135.5,93.49Z" class="cls-2" transform="translate(-1 -1.09)"/><path d="M175.64,94.15a2.54,2.54,0,0,0,.51,1.65,1.71,1.71,0,0,0,1.41.63,4.24,4.24,0,0,0,2.37-.78,10.55,10.55,0,0,0,2.07-1.8,13.31,13.31,0,0,0,2-2.58,1.18,1.18,0,0,1,.3-.42,2.08,2.08,0,0,1,.36-.27,1,1,0,0,1,.54-.15,1.25,1.25,0,0,1,.87.36,1.11,1.11,0,0,1,.39.84,1.13,1.13,0,0,1-.09.45q-.09.21-.21.45t-.24.54A21.15,21.15,0,0,1,183,96.79a17,17,0,0,1-3.27,2.52,7.81,7.81,0,0,1-4.11,1.14,8.28,8.28,0,0,1-5.52-1.77,5.42,5.42,0,0,1-2.1-4.29,13.15,13.15,0,0,1,.48-3.57q.48-1.71,1.05-3.33t1-3.09a9.16,9.16,0,0,0,.48-2.85.83.83,0,0,0-.36-.69,1.36,1.36,0,0,0-.84-.27,4.85,4.85,0,0,0-3,1.29,13.36,13.36,0,0,0-3,3.72,24.34,24.34,0,0,0-2.34,5.88,29.88,29.88,0,0,0-.93,7.77q0,.78-.33,1a1.87,1.87,0,0,1-1,.21,8,8,0,0,1-4-.93,2.72,2.72,0,0,1-1.62-2.37,26.55,26.55,0,0,1,.57-5.31q.57-2.79,1.35-5.4t1.59-4.83q.81-2.22,1.35-3.48A1.66,1.66,0,0,1,160.1,77a4.19,4.19,0,0,1,1.74.54,7.51,7.51,0,0,1,2.46,2.7,15.89,15.89,0,0,1,2.82-1.92,21.07,21.07,0,0,1,3-1.32,10.62,10.62,0,0,1,3.6-.6,4.08,4.08,0,0,1,1.89.48,6.24,6.24,0,0,1,1.65,1.23,6.1,6.1,0,0,1,1.14,1.65,4.22,4.22,0,0,1,.42,1.8,9.2,9.2,0,0,1-.51,2.91q-.51,1.53-1.08,3.15t-1.08,3.27A11,11,0,0,0,175.64,94.15Z" class="cls-2" transform="translate(-1 -1.09)"/><path d="M189.92,100.45a8.1,8.1,0,0,1-5.52-1.83,6,6,0,0,1-2.1-4.77,17.35,17.35,0,0,1,.54-3.9q.54-2.28,1.26-4.62t1.53-4.44q.81-2.1,1.35-3.36a2.36,2.36,0,0,1,.66-.81,1.51,1.51,0,0,1,1-.33,3.43,3.43,0,0,1,1.5.42,10.18,10.18,0,0,1,1.56,1,7.23,7.23,0,0,1,1.2,1.11,1.64,1.64,0,0,1,.48.93,9.27,9.27,0,0,1-.54,3q-.54,1.59-1.17,3.39T190.49,90a16.89,16.89,0,0,0-.51,4.17,2.54,2.54,0,0,0,.51,1.65,1.71,1.71,0,0,0,1.41.63,1.8,1.8,0,0,0,1-.3q.48-.3,1-.66a6.15,6.15,0,0,0,1-1,4.81,4.81,0,0,1,.54-.57,1,1,0,0,1,.72-.27,1.45,1.45,0,0,1,1.32,1.32,1.48,1.48,0,0,1-.36.84,3.15,3.15,0,0,0-.3.48,17.34,17.34,0,0,1-2.1,2.1,10.74,10.74,0,0,1-2.19,1.47A5.53,5.53,0,0,1,189.92,100.45Zm8.7-35.16a6.92,6.92,0,0,1-.39,2.31,6.77,6.77,0,0,1-1.08,2A5.62,5.62,0,0,1,195.59,71a3.56,3.56,0,0,1-1.83.51,3.22,3.22,0,0,1-2.28-.9,3.29,3.29,0,0,1-1-2.52,6.08,6.08,0,0,1,.42-2.22,7.48,7.48,0,0,1,1.11-1.95,5.46,5.46,0,0,1,1.59-1.38,3.83,3.83,0,0,1,1.92-.51,2.92,2.92,0,0,1,2.19.9A3.31,3.31,0,0,1,198.62,65.29Z" class="cls-2" transform="translate(-1 -1.09)"/></svg>