<svg xmlns="http://www.w3.org/2000/svg" viewBox="0 0 207.62 128.64"><defs><style>.cls-1{fill:#fff;}.cls-2{font-size:60px;fill:#b7004f;font-family:Milkshake;letter-spacing:0.01em;}.cls-3{letter-spacing:-0.01em;}</style></defs><title>logocolour</title><g id="Layer_1" data-name="Layer 1"><path class="cls-1" d="M22.52,63.45a18,18,0,0,1-12.09-4.29A16.1,16.1,0,0,1,4.9,46.85a27.17,27.17,0,0,1,.81-6.21c.4-1.71.89-3.47,1.43-5.25s1.14-3.49,1.76-5.1,1.08-2.74,1.49-3.7c.07-.17.15-.35.24-.52A12.1,12.1,0,0,1,13.2,22.6c0-.51-.08-1-.08-1.55a16.07,16.07,0,0,1,1.1-5.85,17.49,17.49,0,0,1,2.6-4.54A15.36,15.36,0,0,1,21.31,6.8,13.87,13.87,0,0,1,28.16,5a12.93,12.93,0,0,1,9.37,3.94,13.38,13.38,0,0,1,3.69,9.36,17.07,17.07,0,0,1-3.63,10.5,15.77,15.77,0,0,1-1.85,2,10.56,10.56,0,0,1,.2,2.05c0,.42,0,.85,0,1.27a11.44,11.44,0,0,1,3.88,2.36A11.13,11.13,0,0,1,42.48,49c-.1.24-.24.53-.39.84a10.9,10.9,0,0,1-.78,1.52A30.91,30.91,0,0,1,37,56.86a26.85,26.85,0,0,1-5.18,4A17.68,17.68,0,0,1,22.52,63.45Z" transform="translate(-1 -1.09)"/><path class="cls-1" d="M40.88,63.87a20.42,20.42,0,0,1-8.22-1.71,22.8,22.8,0,0,1-6.11-3.91,21.14,21.14,0,0,1-4.4-5.46A15.83,15.83,0,0,1,20,45.05a13,13,0,0,1,3.83-9.29,18.7,18.7,0,0,1,4.2-3.17l.2-.12.92-.45.51-.76c.48-.72,1-1.58,1.66-2.58a1.74,1.74,0,0,0,.11-.18,28.88,28.88,0,0,1,5.61-6.63,14,14,0,0,1,9-3.5A12,12,0,0,1,51.7,19.8a15.85,15.85,0,0,1,2.54,1.66A15,15,0,0,1,56.71,24,11,11,0,0,1,59,30.59a11.25,11.25,0,0,1-.4,2.93,11.32,11.32,0,0,1,6.21,2.92,11,11,0,0,1,3.61,8.19A11.16,11.16,0,0,1,67.52,49c-.14.31-.27.6-.42.9a11,11,0,0,1-.95,1.79,25.38,25.38,0,0,1-6.36,6.43A31.67,31.67,0,0,1,52.21,62,32.52,32.52,0,0,1,40.88,63.87Z" transform="translate(-1 -1.09)"/><path class="cls-1" d="M76.52,63.45A17.45,17.45,0,0,1,69,61.81a16.81,16.81,0,0,1-7.31,1.64,16.11,16.11,0,0,1-6.06-1.18,15.49,15.49,0,0,1-5.37-3.62,16.39,16.39,0,0,1-3.31-5,16.56,16.56,0,0,1-1.26-6.4,27.7,27.7,0,0,1,1.9-10,32.71,32.71,0,0,1,4.64-8.26,27.87,27.87,0,0,1,7-6.43,19.23,19.23,0,0,1,16.7-2.08,18.48,18.48,0,0,1,4.38,2.19l.33.24A14.88,14.88,0,0,1,83.47,24a13.1,13.1,0,0,1,4.3,3.59,11.9,11.9,0,0,1,2.5,6.66,11.32,11.32,0,0,1,3.5,2.21,11,11,0,0,1,3.61,8.19A11.16,11.16,0,0,1,96.5,49c-.14.31-.27.6-.42.9a11.91,11.91,0,0,1-.77,1.51A31.28,31.28,0,0,1,91,56.86a26.85,26.85,0,0,1-5.18,4A17.68,17.68,0,0,1,76.52,63.45Z" transform="translate(-1 -1.09)"/><path class="cls-1" d="M94.34,63.45A18,18,0,0,1,87.25,62,21,21,0,0,1,81.5,58.3a20.34,20.34,0,0,1-4.44-5.68,17.52,17.52,0,0,1-2-8.23,57.44,57.44,0,0,1,.72-8.86,70,70,0,0,1,2-8.81,60.84,60.84,0,0,1,3.12-8.44,43.83,43.83,0,0,1,4.43-7.61,28,28,0,0,1,6.28-6.26,17.75,17.75,0,0,1,10.23-3.32,14.12,14.12,0,0,1,6.53,1.62,16.27,16.27,0,0,1,4.49,3.41,17.94,17.94,0,0,1,2.78,3.94,13.71,13.71,0,0,1,1.6,6.31A17.48,17.48,0,0,1,115.8,23c-.31.74-.65,1.48-1,2.23a17.77,17.77,0,0,1,2.7,4.43,16.06,16.06,0,0,1,1.24,5.19A11.82,11.82,0,0,1,121,36.45a11,11,0,0,1,3.6,8.18,11.16,11.16,0,0,1-.88,4.35l-.41.89a9.67,9.67,0,0,1-1,1.82,19.71,19.71,0,0,1-5,5,23.62,23.62,0,0,1-5.47,3,21.83,21.83,0,0,1-7.76,1.48A21.93,21.93,0,0,1,94.34,63.45Z" transform="translate(-1 -1.09)"/><path class="cls-1" d="M122.54,63.45a23.08,23.08,0,0,1-7.45-1.2,20.31,20.31,0,0,1-6.52-3.66,18.4,18.4,0,0,1-4.7-6.09,17.92,17.92,0,0,1-1.77-7.87,25.05,25.05,0,0,1,2.13-10.32,26.85,26.85,0,0,1,5.08-7.66,24.42,24.42,0,0,1,7.07-5.2,19.77,19.77,0,0,1,8.56-2.06,16.19,16.19,0,0,1,6.68,1.42,17.26,17.26,0,0,1,4.95,3.34,16.28,16.28,0,0,1,3.58,5.11,15.73,15.73,0,0,1,1.39,6.13,12.82,12.82,0,0,1,1.31,1,11,11,0,0,1,3.61,8.19,11.2,11.2,0,0,1-.88,4.35q-.18.44-.42.9a11.27,11.27,0,0,1-.77,1.51A25.2,25.2,0,0,1,139,57.53a28.61,28.61,0,0,1-6.34,3.87A24,24,0,0,1,122.54,63.45Z" transform="translate(-1 -1.09)"/><path class="cls-1" d="M143.24,63.45a19.93,19.93,0,0,1-6.86-1.2,18.48,18.48,0,0,1-10.64-9.94,19.1,19.1,0,0,1-1.62-7.86,46.65,46.65,0,0,1,.86-8.51,61.61,61.61,0,0,1,2.32-8.73A77.77,77.77,0,0,1,130.63,19a49.89,49.89,0,0,1,4.57-7.79,30.63,30.63,0,0,1,6.15-6.44A17,17,0,0,1,151.7,1.09a14,14,0,0,1,6.62,1.65,16.47,16.47,0,0,1,4.1,3.1,16.14,16.14,0,0,1,2.9,4.16,13.83,13.83,0,0,1,1.42,6,19.55,19.55,0,0,1-1.26,6.54,47,47,0,0,1-2.34,5.38c-.91,1.8-2,3.65-3.16,5.52-.37.58-.75,1.15-1.13,1.73a10.85,10.85,0,0,1,1.64,1.26,11,11,0,0,1,3.61,8.19,11.16,11.16,0,0,1-.88,4.35c-.14.31-.27.6-.42.9a11.91,11.91,0,0,1-.77,1.51,31.47,31.47,0,0,1-4.34,5.47,26.85,26.85,0,0,1-5.18,4A17.68,17.68,0,0,1,143.24,63.45Z" transform="translate(-1 -1.09)"/><path class="cls-1" d="M160.88,63.45a19.93,19.93,0,0,1-6.86-1.2,18.48,18.48,0,0,1-10.64-9.94,19.1,19.1,0,0,1-1.62-7.86,46.65,46.65,0,0,1,.86-8.51,61.61,61.61,0,0,1,2.32-8.73A77.77,77.77,0,0,1,148.27,19a49.89,49.89,0,0,1,4.57-7.79A30.63,30.63,0,0,1,159,4.75a17,17,0,0,1,10.35-3.66A14,14,0,0,1,176,2.74a16.47,16.47,0,0,1,4.1,3.1A16.14,16.14,0,0,1,183,10a13.83,13.83,0,0,1,1.42,6,19.55,19.55,0,0,1-1.26,6.54,47,47,0,0,1-2.34,5.38c-.91,1.8-2,3.65-3.16,5.52-.37.58-.75,1.15-1.13,1.73a10.85,10.85,0,0,1,1.64,1.26,11,11,0,0,1,3.61,8.19,11.16,11.16,0,0,1-.88,4.35c-.14.31-.27.6-.42.9a11.91,11.91,0,0,1-.77,1.51,31.47,31.47,0,0,1-4.34,5.47,26.85,26.85,0,0,1-5.18,4A17.68,17.68,0,0,1,160.88,63.45Z" transform="translate(-1 -1.09)"/><path class="cls-1" d="M189.86,63.45a17.42,17.42,0,0,1-7.51-1.64A16.84,16.84,0,0,1,175,63.45,16.2,16.2,0,0,1,169,62.27a15.54,15.54,0,0,1-5.36-3.62A16.33,16.33,0,0,1,159,47.21a27.8,27.8,0,0,1,1.9-10,32.82,32.82,0,0,1,4.64-8.25,27.53,27.53,0,0,1,7-6.43,19.23,19.23,0,0,1,16.7-2.08,18.48,18.48,0,0,1,4.38,2.19l.32.24A14.72,14.72,0,0,1,196.81,24a13.1,13.1,0,0,1,4.3,3.59A12,12,0,0,1,203.64,35a14,14,0,0,1-.64,4,11.87,11.87,0,0,1,1,.88,11.12,11.12,0,0,1,1.3,14.41,9.64,9.64,0,0,1-1,1.38A27.3,27.3,0,0,1,201.09,59,21,21,0,0,1,197,61.72,15.45,15.45,0,0,1,189.86,63.45Z" transform="translate(-1 -1.09)"/><path class="cls-1" d="M16.46,125.87a18.64,18.64,0,0,1-3.93-.44,15.91,15.91,0,0,1-4.73-1.85,14.1,14.1,0,0,1-4.67-4.52A13.72,13.72,0,0,1,1,111.61a29.46,29.46,0,0,1,.58-5.18c.3-1.65.69-3.55,1.15-5.67s1-4.43,1.66-6.83,1.23-4.66,1.86-7,1.3-4.6,1.95-6.7,1.3-4,1.89-5.62c.05-.14.1-.27.16-.41A11.66,11.66,0,0,1,21.14,67,12.76,12.76,0,0,1,26,68l.29-.13a16.63,16.63,0,0,1,6.79-1.46,16.09,16.09,0,0,1,7.57,1.83,17.33,17.33,0,0,1,5.19,4.1A18.52,18.52,0,0,1,49,77.46a17,17,0,0,1,1.15,4.31,11.18,11.18,0,0,1,2.35,1.67,11,11,0,0,1,3.61,8.19,10.87,10.87,0,0,1-.91,4.4,8,8,0,0,1-.38.83,9.76,9.76,0,0,1-1,1.83,19.71,19.71,0,0,1-4.95,5,23.75,23.75,0,0,1-5.46,3,22.07,22.07,0,0,1-7.48,1.48,22.3,22.3,0,0,1-2.06.92A19.34,19.34,0,0,1,28,110.42c-.06.41-.12.82-.17,1.23a24.47,24.47,0,0,0-.22,2.9A11.11,11.11,0,0,1,16.46,125.87Z" transform="translate(-1 -1.09)"/><path class="cls-1" d="M49.58,110.45a18,18,0,0,1-12.09-4.29A16.07,16.07,0,0,1,32,93.85a26.62,26.62,0,0,1,.81-6.21c.4-1.71.89-3.47,1.43-5.25s1.14-3.49,1.76-5.1S37,74.55,37.45,73.6a5.05,5.05,0,0,1,.24-.53,12.24,12.24,0,0,1,2.57-3.47c0-.51-.08-1-.08-1.55a16.11,16.11,0,0,1,1.1-5.85,17.49,17.49,0,0,1,2.6-4.54,15.36,15.36,0,0,1,4.49-3.86A13.87,13.87,0,0,1,55.22,52a12.93,12.93,0,0,1,9.37,3.94,13.38,13.38,0,0,1,3.69,9.36,17.07,17.07,0,0,1-3.63,10.5,15.77,15.77,0,0,1-1.85,2,10.63,10.63,0,0,1,.2,2c0,.42,0,.85,0,1.27a11.44,11.44,0,0,1,3.88,2.36,11,11,0,0,1,3.61,8.19,10.87,10.87,0,0,1-.91,4.4c-.09.24-.23.53-.38.84a10.9,10.9,0,0,1-.78,1.52A30.91,30.91,0,0,1,64,103.86a27.16,27.16,0,0,1-5.18,4A17.68,17.68,0,0,1,49.58,110.45Z" transform="translate(-1 -1.09)"/><path class="cls-1" d="M77.24,110.45a17.45,17.45,0,0,1-7.51-1.64,16.81,16.81,0,0,1-7.31,1.64,16.11,16.11,0,0,1-6.06-1.18A15.49,15.49,0,0,1,51,105.65a16.33,16.33,0,0,1-4.57-11.44,27.7,27.7,0,0,1,1.9-10A32.71,32.71,0,0,1,53,75.93a27.47,27.47,0,0,1,7-6.42,19,19,0,0,1,10.28-3.12,19.21,19.21,0,0,1,6.42,1A18.48,18.48,0,0,1,81,69.61l.32.24A14.72,14.72,0,0,1,84.19,71a13.1,13.1,0,0,1,4.3,3.59A11.9,11.9,0,0,1,91,81.23a11.32,11.32,0,0,1,3.5,2.21,11,11,0,0,1,3.61,8.19A11.16,11.16,0,0,1,97.22,96c-.14.31-.27.6-.42.9A11.91,11.91,0,0,1,96,98.39a31.28,31.28,0,0,1-4.34,5.47,26.85,26.85,0,0,1-5.18,4A17.68,17.68,0,0,1,77.24,110.45Z" transform="translate(-1 -1.09)"/><path class="cls-1" d="M105.74,110.45a18.85,18.85,0,0,1-9.26-2.27,7.85,7.85,0,0,1-.66.47,11.69,11.69,0,0,1-6.4,1.8,17.82,17.82,0,0,1-9-2.26,12.56,12.56,0,0,1-6.64-11,36.72,36.72,0,0,1,.77-7.31c.44-2.16,1-4.26,1.57-6.27s1.16-3.7,1.77-5.39,1.12-3,1.55-4A11.61,11.61,0,0,1,90.26,67a13.14,13.14,0,0,1,5.21,1.13c.47-.19,1-.37,1.45-.55a20.72,20.72,0,0,1,7-1.18A14,14,0,0,1,110.35,68a16.25,16.25,0,0,1,7.27,7.54A14.22,14.22,0,0,1,119,81a11.45,11.45,0,0,1,4,2.41,11,11,0,0,1,3.61,8.19,11.16,11.16,0,0,1-.88,4.35q-.18.43-.42.9a11.27,11.27,0,0,1-.77,1.51,30.91,30.91,0,0,1-4.34,5.47,26.85,26.85,0,0,1-5.18,4A17.68,17.68,0,0,1,105.74,110.45Z" transform="translate(-1 -1.09)"/><path class="cls-1" d="M121.22,110.45a19.15,19.15,0,0,1-6.16-1,19.46,19.46,0,0,1-5.67-3.06,18.71,18.71,0,0,1-4.41-4.93,15.52,15.52,0,0,1-2.28-8.11,29.16,29.16,0,0,1,.43-4.71c.25-1.49.59-3.11,1-4.8.29-1.17.62-2.4,1-3.64a10.9,10.9,0,0,1-.66-3.77,13,13,0,0,1,5.36-10c.06-.16.13-.31.19-.47a40.53,40.53,0,0,1,2.17-4.46,12.43,12.43,0,0,1,3.23-3.84,11.51,11.51,0,0,1,7.15-2.47,13.11,13.11,0,0,1,6.06,1.54,19.09,19.09,0,0,1,3.14,2,18.19,18.19,0,0,1,2.79,2.75,11.76,11.76,0,0,1,2.66,6.44,10.63,10.63,0,0,1,2.55,7,11.28,11.28,0,0,1-1.24,5.07A14.07,14.07,0,0,1,137,82.28a10.86,10.86,0,0,1,1.47,1.16,11,11,0,0,1,3.62,8.19A11.16,11.16,0,0,1,141.2,96l-.41.89a10.37,10.37,0,0,1-.78,1.52,31.47,31.47,0,0,1-4.34,5.47,26.85,26.85,0,0,1-5.18,4A17.68,17.68,0,0,1,121.22,110.45Z" transform="translate(-1 -1.09)"/><path class="cls-1" d="M137.78,110.45a20,20,0,0,1-13.2-5,18.36,18.36,0,0,1-4.42-5.86A17.4,17.4,0,0,1,118.42,92a26.24,26.24,0,0,1,2.15-10.74,25.59,25.59,0,0,1,5.5-8,24.41,24.41,0,0,1,7.64-5.06,22.49,22.49,0,0,1,8.63-1.78,20,20,0,0,1,6.95,1.22,17.71,17.71,0,0,1,6.39,4.08,18.94,18.94,0,0,1,5.08,9.51,11.44,11.44,0,0,1,3.58,2.25,11,11,0,0,1,3.6,8.18,11.16,11.16,0,0,1-.88,4.35l-.41.89a9.67,9.67,0,0,1-1,1.82,19.88,19.88,0,0,1-4.95,5,23.82,23.82,0,0,1-5.47,3,22.25,22.25,0,0,1-8.1,1.49,22.43,22.43,0,0,1-2.3,1A20.67,20.67,0,0,1,137.78,110.45Z" transform="translate(-1 -1.09)"/><path class="cls-1" d="M175.58,110.45a18.85,18.85,0,0,1-9.26-2.27,7.85,7.85,0,0,1-.66.47,11.69,11.69,0,0,1-6.4,1.8,17.82,17.82,0,0,1-9-2.26,12.56,12.56,0,0,1-6.64-11,36.72,36.72,0,0,1,.77-7.31c.44-2.16,1-4.26,1.57-6.27s1.16-3.7,1.77-5.39,1.12-3,1.55-4A11.61,11.61,0,0,1,160.1,67a13.14,13.14,0,0,1,5.21,1.13c.47-.19.95-.37,1.45-.55a20.72,20.72,0,0,1,7-1.18A14,14,0,0,1,180.19,68a16.25,16.25,0,0,1,7.27,7.54A14.22,14.22,0,0,1,188.81,81a11.32,11.32,0,0,1,4,2.41,11,11,0,0,1,3.62,8.19,11.16,11.16,0,0,1-.88,4.35q-.18.43-.42.9a11.27,11.27,0,0,1-.77,1.51,31.37,31.37,0,0,1-4.34,5.47,26.85,26.85,0,0,1-5.18,4A17.68,17.68,0,0,1,175.58,110.45Z" transform="translate(-1 -1.09)"/><path class="cls-1" d="M189.92,110.45a18,18,0,0,1-12.09-4.29,16.07,16.07,0,0,1-5.53-12.31,26.62,26.62,0,0,1,.81-6.21c.4-1.71.88-3.47,1.43-5.25s1.14-3.49,1.76-5.1,1.07-2.74,1.48-3.7c.08-.17.16-.35.25-.52a12.05,12.05,0,0,1,2.57-3.47c0-.51-.08-1-.08-1.55a16.11,16.11,0,0,1,1.1-5.85,17.49,17.49,0,0,1,2.6-4.54,15.36,15.36,0,0,1,4.49-3.86A13.87,13.87,0,0,1,195.56,52a12.93,12.93,0,0,1,9.37,3.94,13.38,13.38,0,0,1,3.69,9.36,16.72,16.72,0,0,1-1,5.62A16.54,16.54,0,0,1,205,75.79a15,15,0,0,1-1.84,2,10.63,10.63,0,0,1,.2,2,19.3,19.3,0,0,1-.93,5.76A11.84,11.84,0,0,1,204.06,87a11.1,11.1,0,0,1,1.3,14.4,9.64,9.64,0,0,1-1,1.38,27.3,27.3,0,0,1-3.22,3.23,20.73,20.73,0,0,1-4.12,2.76A15.48,15.48,0,0,1,189.92,110.45Z" transform="translate(-1 -1.09)"/></g><g id="Layer_2" data-name="Layer 2"><text class="cls-2" transform="translate(14.74 51.76)">isabella<tspan class="cls-3"><tspan x="0" y="47">piantoni</tspan></tspan></text></g></svg>